<svg width="100" height="100" viewBox="0 0 100 100" fill="none" xmlns="http://www.w3.org/2000/svg">
<path d="M33.3333 16.6667V66.6667C33.3333 68.8768 34.2112 70.9964 35.774 72.5592C37.3368 74.122 39.4564 75 41.6666 75H74.9999C77.2101 75 79.3297 74.122 80.8925 72.5592C82.4553 70.9964 83.3333 68.8768 83.3333 66.6667V30.175C83.3331 29.0648 83.1112 27.9659 82.6804 26.9427C82.2497 25.9195 81.6188 24.9927 80.8249 24.2167L67.0124 10.7083C65.4556 9.18608 63.3648 8.33361 61.1874 8.33334H41.6666C39.4564 8.33334 37.3368 9.21132 35.774 10.7741C34.2112 12.3369 33.3333 14.4565 33.3333 16.6667V16.6667Z" stroke="#5178CD" stroke-width="8.33333" stroke-linecap="round" stroke-linejoin="round"/>
<path d="M66.6666 75V83.3333C66.6666 85.5435 65.7886 87.6631 64.2258 89.2259C62.663 90.7887 60.5434 91.6667 58.3333 91.6667H25C22.7898 91.6667 20.6702 90.7887 19.1074 89.2259C17.5446 87.6631 16.6666 85.5435 16.6666 83.3333V37.5C16.6666 35.2899 17.5446 33.1703 19.1074 31.6074C20.6702 30.0446 22.7898 29.1667 25 29.1667H33.3333" stroke="#5178CD" stroke-width="8.33333" stroke-linecap="round" stroke-linejoin="round"/>
</svg>
