<svg width="100" height="100" viewBox="0 0 100 100" fill="none" xmlns="http://www.w3.org/2000/svg">
<path d="M93.75 42.1875C93.75 43.4307 93.2561 44.623 92.3771 45.5021C91.498 46.3811 90.3057 46.875 89.0625 46.875L50 46.875C49.1712 46.875 48.3763 47.2042 47.7903 47.7903C47.2042 48.3763 46.875 49.1712 46.875 50C46.875 50.8288 47.2042 51.6237 47.7903 52.2097C48.3763 52.7958 49.1712 53.125 50 53.125L65.8312 53.125L65.8563 53.6625C65.9313 55.6438 65.9063 57.6437 65.6875 58.7625C65.5188 59.6 65.0875 60.6 64.55 61.5625C64.2875 62.0437 63.6312 62.5 62.5875 62.5L50 62.5C49.1712 62.5 48.3763 62.8292 47.7903 63.4153C47.2042 64.0013 46.875 64.7962 46.875 65.625C46.875 66.4538 47.2042 67.2487 47.7903 67.8347C48.3763 68.4208 49.1712 68.75 50 68.75L59.7813 68.75L59.8437 69.4125C59.9937 71.3875 59.9062 73.0625 59.5937 73.8375C59.3062 74.575 58.3 75.7125 56.9063 76.875C56.3063 77.3812 55.7188 77.8125 55.2875 78.125H46.875C46.0462 78.125 45.2513 78.4542 44.6653 79.0403C44.0792 79.6263 43.75 80.4212 43.75 81.25C43.75 82.0788 44.0792 82.8737 44.6653 83.4597C45.2513 84.0458 46.0462 84.375 46.875 84.375H53.125V86.5125C53.125 87.386 52.9419 88.2498 52.5876 89.0481C52.2332 89.8465 51.7154 90.5617 51.0677 91.1477C50.4199 91.7336 49.6565 92.1773 48.8267 92.45C47.9969 92.7228 47.1191 92.8186 46.25 92.7312L29.2813 91.0375C27.1006 90.8188 24.9903 90.1437 23.0875 89.0562L7.825 80.3375C7.3467 80.0643 6.94913 79.6695 6.67254 79.1932C6.39595 78.7168 6.25018 78.1758 6.25 77.625V38.2375C6.25002 37.6576 6.41137 37.0892 6.71602 36.5958C7.02066 36.1024 7.45658 35.7035 7.975 35.4437L23.3813 27.7438L49.5375 12.0437C50.2138 11.6404 51.0141 11.4978 51.788 11.6429C52.562 11.788 53.2563 12.2107 53.7406 12.8316C54.2249 13.4525 54.4658 14.2288 54.418 15.0148C54.3703 15.8008 54.0371 16.5423 53.4813 17.1L38.4188 32.1625C37.981 32.5992 37.6826 33.1559 37.5613 33.7623C37.4401 34.3686 37.5014 34.9973 37.7377 35.5688C37.9739 36.1402 38.3743 36.6287 38.8883 36.9725C39.4022 37.3163 40.0067 37.4999 40.625 37.5L89.0625 37.5C90.3057 37.5 91.498 37.9939 92.3771 38.8729C93.2561 39.752 93.75 40.9443 93.75 42.1875V42.1875ZM72.0875 53.125L89.0625 53.125C91.9633 53.125 94.7453 51.9727 96.7965 49.9215C98.8477 47.8703 100 45.0883 100 42.1875C100 39.2867 98.8477 36.5047 96.7965 34.4535C94.7453 32.4023 91.9633 31.25 89.0625 31.25L48.1687 31.25L57.9 21.5188C59.5283 19.8815 60.5031 17.7062 60.6415 15.4012C60.7798 13.0963 60.0723 10.82 58.6516 8.99969C57.2309 7.17934 55.1948 5.94002 52.9252 5.51431C50.6557 5.08859 48.3088 5.50575 46.325 6.6875L20.3687 22.2563L5.18125 29.85C3.62388 30.6289 2.31422 31.8262 1.39908 33.3077C0.48394 34.7891 -0.000521231 36.4962 0 38.2375V77.625C0.000533007 79.2775 0.437839 80.9004 1.26761 82.3295C2.09737 83.7585 3.29011 84.9429 4.725 85.7625L19.9812 94.4812C22.6481 96.0055 25.606 96.951 28.6625 97.2562L45.6312 98.95C47.369 99.1238 49.1238 98.9315 50.7826 98.3855C52.4415 97.8396 53.9675 96.9521 55.2624 95.7803C56.5573 94.6085 57.5922 93.1784 58.3006 91.5821C59.0089 89.9859 59.3749 88.2589 59.375 86.5125L59.375 82.8812C59.9041 82.491 60.421 82.0846 60.925 81.6625C62.3563 80.4687 64.475 78.475 65.4 76.1625C66.3125 73.8875 66.225 70.875 66.075 68.925L66 68.1C67.7033 67.4346 69.1219 66.1972 70.0125 64.6C70.8418 63.1621 71.4486 61.607 71.8125 59.9875C72.2 58.05 72.175 55.3688 72.1 53.425L72.0875 53.125Z" fill="#F5F5F5"/>
</svg>
