<svg width="100" height="100" viewBox="0 0 100 100" fill="none" xmlns="http://www.w3.org/2000/svg">
<path d="M89.81 26.545C89.9996 27.0017 90.0494 27.5044 89.9533 27.9894C89.8572 28.4745 89.6194 28.9201 89.27 29.27L79.27 39.27C79.0374 39.502 78.7614 39.6859 78.4576 39.8112C78.1539 39.9364 77.8285 40.0006 77.5 40H63.535L56.77 46.765C57.5326 48.3615 57.7062 50.1761 57.2602 51.8883C56.8142 53.6004 55.7773 55.0997 54.3327 56.1212C52.8881 57.1427 51.1289 57.6207 49.3661 57.4706C47.6032 57.3204 45.9502 56.5519 44.6991 55.3009C43.4481 54.0498 42.6796 52.3968 42.5294 50.6339C42.3793 48.871 42.8573 47.1119 43.8788 45.6673C44.9003 44.2227 46.3996 43.1858 48.1117 42.7398C49.8239 42.2938 51.6385 42.4674 53.235 43.23L60 36.465V22.5C59.9994 22.1715 60.0636 21.8461 60.1888 21.5423C60.3141 21.2386 60.498 20.9626 60.73 20.73L70.73 10.73C71.0796 10.3795 71.5255 10.1406 72.011 10.0438C72.4966 9.94698 72.9999 9.99649 73.4573 10.1861C73.9147 10.3757 74.3055 10.6968 74.5801 11.1087C74.8547 11.5207 75.0009 12.0049 75 12.5V25H87.5C87.9947 25.0001 88.4782 25.1469 88.8894 25.422C89.3007 25.697 89.621 26.0878 89.81 26.545V26.545ZM81.465 30H72.5C71.837 30 71.2011 29.7366 70.7322 29.2678C70.2634 28.7989 70 28.163 70 27.5V18.535L65 23.535V35H76.465L81.465 30ZM88.035 37.575C89.31 41.485 90 45.665 90 50C89.9982 58.4497 87.3206 66.6818 82.3512 73.5157C77.3819 80.3497 70.376 85.4344 62.3384 88.0408C54.3007 90.6472 45.6441 90.6413 37.61 88.024C29.5759 85.4067 22.577 80.3125 17.6169 73.4718C12.6568 66.6311 9.99041 58.3954 10 49.9458C10.0096 41.4961 12.6948 33.2665 17.6704 26.4371C22.6461 19.6077 29.6566 14.5294 37.6967 11.9305C45.7367 9.33147 54.3933 9.34532 62.425 11.97L58.385 16.01C50.9629 14.18 43.1459 14.8302 36.1281 17.8612C29.1104 20.8923 23.278 26.1376 19.5221 32.7956C15.7662 39.4536 14.2933 47.1581 15.3285 54.7321C16.3637 62.306 19.8501 69.3327 25.2549 74.7386C30.6598 80.1445 37.6858 83.6322 45.2595 84.6689C52.8332 85.7056 60.5381 84.2342 67.1968 80.4796C73.8555 76.725 79.102 70.8936 82.1344 63.8765C85.1669 56.8594 85.8186 49.0424 83.99 41.62L88.035 37.575V37.575ZM74.5 45C75.5738 50.2653 74.9225 55.7365 72.6426 60.6026C70.3627 65.4687 66.5755 69.4706 61.8424 72.0152C57.1094 74.5598 51.6824 75.5117 46.3659 74.7296C41.0494 73.9475 36.1264 71.4732 32.3266 67.6734C28.5268 63.8736 26.0525 58.9506 25.2704 53.6341C24.4883 48.3176 25.4402 42.8906 27.9848 38.1576C30.5294 33.4245 34.5313 29.6373 39.3974 27.3574C44.2635 25.0775 49.7347 24.4262 55 25.5V30.63C50.7523 29.5342 46.2622 29.8653 42.2213 31.5724C38.1803 33.2794 34.8127 36.2677 32.6371 40.0768C30.4615 43.886 29.5986 48.3049 30.1813 52.6527C30.764 57.0006 32.76 61.0362 35.8619 64.1381C38.9638 67.24 42.9994 69.236 47.3473 69.8187C51.6951 70.4014 56.114 69.5385 59.9231 67.3629C63.7323 65.1873 66.7206 61.8197 68.4276 57.7787C70.1347 53.7378 70.4658 49.2476 69.37 45H74.5Z" fill="#555555"/>
</svg>
